/* XPM */
static char * Aqua_Square_xpm[] = {
"19 19 73 1",
" 	c None",
".	c #083A75",
"+	c #00295F",
"@	c #052A60",
"#	c #2A4D7E",
"$	c #2F4E7E",
"%	c #2F4F7E",
"&	c #0D4583",
"*	c #063F7E",
"=	c #27578C",
"-	c #7390AE",
";	c #7894B0",
">	c #7A96B1",
",	c #1D548F",
"'	c #235A96",
")	c #406EA0",
"!	c #7997B6",
"~	c #88A0B9",
"{	c #8AA2BB",
"]	c #89A2BB",
"^	c #225993",
"/	c #396DA3",
"(	c #4273A6",
"_	c #5A84AF",
":	c #6F92B6",
"<	c #7494B7",
"[	c #7493B7",
"}	c #215993",
"|	c #3E71A5",
"1	c #4F7CAC",
"2	c #5885B1",
"3	c #5E87B3",
"4	c #618AB5",
"5	c #3E70A5",
"6	c #527EAE",
"7	c #608AB6",
"8	c #678FB8",
"9	c #6891BA",
"0	c #517FAE",
"a	c #688FB9",
"b	c #6991BA",
"c	c #6890B9",
"d	c #6A91BA",
"e	c #3D70A5",
"f	c #547FAF",
"g	c #658EB9",
"h	c #729AC3",
"i	c #769EC6",
"j	c #215892",
"k	c #4073A7",
"l	c #5E8CB9",
"m	c #759DC7",
"n	c #85ADD0",
"o	c #8AB0D0",
"p	c #245A94",
"q	c #4C7CAE",
"r	c #6C98C6",
"s	c #84AFD2",
"t	c #95BED2",
"u	c #9AC4D2",
"v	c #2C629A",
"w	c #5585B7",
"x	c #709FCF",
"y	c #88B5D5",
"z	c #93BFD5",
"A	c #98C4D6",
"B	c #45719E",
"C	c #5B85B2",
"D	c #698FB7",
"E	c #769DC0",
"F	c #7798B5",
"G	c #799CB8",
"H	c #7A9DB8",
"                   ",
" .+@#$%%%%%%%$#@+. ",
" &*=-;>>>>>>>;-=*& ",
" ,')!~{]]]]]{~!)', ",
" ^/(_:<[[[[[<:_(/^ ",
" }|1234444444321|} ",
" }567899999998765} ",
" }507abbbbbbba705} ",
" }507abbbbbbba705} ",
" }507abbbbbbba705} ",
" }507abbbbbbba705} ",
" }507abbbbbbba705} ",
" }507cdddddddc705} ",
" }efghiiiiiiihgfe} ",
" jklmnooooooonmlkj ",
" pqrstuuuuuuutsrqp ",
" vwxyzAAAAAAAzyxwv ",
" BCDEFGHHHHHGFEDCB ",
"                   "};
