/* XPM */
static char * Aqua_drop_xpm[] = {
"13 18 79 1",
" 	c None",
".	c #16386F",
"+	c #5175AC",
"@	c #173056",
"#	c #87A2CE",
"$	c #32558F",
"%	c #98AFD1",
"&	c #0F284E",
"*	c #5577AE",
"=	c #A9C0DC",
"-	c #0E2143",
";	c #204485",
">	c #7A97C3",
",	c #88A3CF",
"'	c #102345",
")	c #193F7E",
"!	c #4A6BA1",
"~	c #89A5CE",
"{	c #7594C8",
"]	c #0E2041",
"^	c #193E82",
"/	c #254F8E",
"(	c #7795C2",
"_	c #7B9CCA",
":	c #7D9DCE",
"<	c #193E7C",
"[	c #1B478A",
"}	c #4067A7",
"|	c #7292C3",
"1	c #7798CA",
"2	c #84A5D1",
"3	c #10264B",
"4	c #1C4B91",
"5	c #2A559D",
"6	c #4D75B2",
"7	c #698BC2",
"8	c #82A0D0",
"9	c #163871",
"0	c #2B5AA0",
"a	c #446FAF",
"b	c #5D83BC",
"c	c #7395C8",
"d	c #224277",
"e	c #416AAE",
"f	c #5882BB",
"g	c #7091C7",
"h	c #7D9ED0",
"i	c #8CABD9",
"j	c #92B0DD",
"k	c #304C75",
"l	c #4B76B6",
"m	c #6689C3",
"n	c #7CA0D1",
"o	c #8CADDB",
"p	c #9ABCE7",
"q	c #A1C0EA",
"r	c #5077B7",
"s	c #668CC5",
"t	c #82A7D9",
"u	c #96B7E5",
"v	c #A9CCEC",
"w	c #B1D3EE",
"x	c #455E88",
"y	c #628CC5",
"z	c #80A4DB",
"A	c #9ABDE9",
"B	c #B9DEF0",
"C	c #5E7FB5",
"D	c #779AD4",
"E	c #95BAE8",
"F	c #ACD2ED",
"G	c #B5D9EE",
"H	c #607CA5",
"I	c #84A5D7",
"J	c #99BCE4",
"K	c #A0C4E5",
"L	c #394964",
"M	c #7E95BB",
"N	c #8391A6",
"      .      ",
"      +      ",
"     @#@     ",
"     $%$     ",
"    &*=*&    ",
"   -;>,>;-   ",
"  ')!~{~!)'  ",
" ]^/(_:_(/^] ",
" <[}|121|}[< ",
"34567:8:76543",
"90abc828cba09",
"defghijihgfed",
"klmnopqponmlk",
" rstuvwvutsr ",
" xyzAwBwAzyx ",
"  CDEFGFEDC  ",
"   HIJKJIH   ",
"    LMNML    "};
