/* XPM */
static char * Aqua_X_xpm[] = {
"18 18 105 2",
"  	c None",
". 	c #163F6C",
"+ 	c #1B406A",
"@ 	c #476A93",
"# 	c #0F325E",
"$ 	c #072F60",
"% 	c #4F749E",
"& 	c #7C96B2",
"* 	c #355C88",
"= 	c #04254F",
"- 	c #04264F",
"; 	c #0F3B6E",
"> 	c #245B95",
", 	c #5E86B0",
"' 	c #7696B7",
") 	c #6E8CAA",
"! 	c #174579",
"~ 	c #052A57",
"{ 	c #164478",
"] 	c #224873",
"^ 	c #2A619A",
"/ 	c #4676A9",
"( 	c #5783B1",
"_ 	c #678CB3",
": 	c #7895B4",
"< 	c #587AA0",
"[ 	c #375B89",
"} 	c #1B3356",
"| 	c #32577F",
"1 	c #4171A5",
"2 	c #4F7FB0",
"3 	c #507FAF",
"4 	c #5880AB",
"5 	c #7E9BB6",
"6 	c #829CB5",
"7 	c #607FA2",
"8 	c #304E70",
"9 	c #4876A6",
"0 	c #4B7BAD",
"a 	c #4674A8",
"b 	c #5C85AE",
"c 	c #7997B6",
"d 	c #839EB8",
"e 	c #355577",
"f 	c #4170A0",
"g 	c #4473A7",
"h 	c #4C7BAA",
"i 	c #6088B1",
"j 	c #7596B7",
"k 	c #214167",
"l 	c #3368A1",
"m 	c #4C7BAC",
"n 	c #628CB6",
"o 	c #143760",
"p 	c #346AA1",
"q 	c #517FAE",
"r 	c #638EBA",
"s 	c #7098C1",
"t 	c #052E5A",
"u 	c #1D4F88",
"v 	c #4A79AA",
"w 	c #658FBC",
"x 	c #79A2C9",
"y 	c #8AB1D1",
"z 	c #072B57",
"A 	c #083E7B",
"B 	c #2C5F96",
"C 	c #5B89B6",
"D 	c #75A0C8",
"E 	c #87B1D0",
"F 	c #96BFD2",
"G 	c #0A3667",
"H 	c #114986",
"I 	c #285F97",
"J 	c #4B7AAC",
"K 	c #739FC8",
"L 	c #8BB5D2",
"M 	c #96C1D4",
"N 	c #90BAD0",
"O 	c #254B75",
"P 	c #2F649C",
"Q 	c #4677AA",
"R 	c #5883B2",
"S 	c #729AC1",
"T 	c #88B3D2",
"U 	c #80ADCE",
"V 	c #709DBE",
"W 	c #486175",
"X 	c #396088",
"Y 	c #5D8DBD",
"Z 	c #78A0C9",
"` 	c #8AB3CF",
" .	c #8AB6D2",
"..	c #6390BE",
"+.	c #3C5C7D",
"@.	c #3E6289",
"#.	c #7BA8D1",
"$.	c #91BCD4",
"%.	c #76A3CA",
"&.	c #3A5A7B",
"*.	c #3A597B",
"=.	c #507598",
"-.	c #81ADCF",
";.	c #4D6D90",
">.	c #436486",
"        .                 .         ",
"      + @ #             # @ +       ",
"    $ % & * =         - * & % $     ",
"  ; > , ' ) ! ~     ~ { ) ' , > ;   ",
"] ^ / ( _ : < [ } } [ < : _ ( / ^ ] ",
"  | 1 2 3 4 5 6 7 7 6 5 4 3 2 1 |   ",
"    8 9 0 a b c d d c b a 0 9 8     ",
"      e f g h i j j i h g f e       ",
"        k l m ( n n ( m l k         ",
"        o p q r s s r q p o         ",
"      t u v w x y y x w v u t       ",
"    z A B C D E F F E D C B A z     ",
"  G H I J K L M N N M L K J I H G   ",
"O P Q R S T U V W W V U T S R Q P O ",
"  X Y Z `  ...+.    +... .` Z Y X   ",
"    @.#.$.%.&.        *.%.$.#.@.    ",
"      =.-.;.            ;.-.=.      ",
"        >.                >.        "};
