/* XPM */
static char * Aqua_Round_xpm[] = {
"17 17 115 2",
"  	c None",
". 	c #072144",
"+ 	c #06265D",
"@ 	c #0E255C",
"# 	c #082342",
"$ 	c #002C66",
"% 	c #133A6C",
"& 	c #426690",
"* 	c #476991",
"= 	c #093366",
"- 	c #00306B",
"; 	c #104079",
"> 	c #5E7FA3",
", 	c #7D96B1",
"' 	c #7B95B0",
") 	c #083569",
"! 	c #003372",
"~ 	c #0A3F7C",
"{ 	c #4F77A2",
"] 	c #809BB7",
"^ 	c #859FB8",
"/ 	c #88A0B9",
"( 	c #082546",
"_ 	c #033B7B",
": 	c #0D4684",
"< 	c #295C94",
"[ 	c #5F85AC",
"} 	c #7796B6",
"| 	c #829DB9",
"1 	c #859EBA",
"2 	c #073E7C",
"3 	c #0F4885",
"4 	c #255C96",
"5 	c #4171A2",
"6 	c #5681AC",
"7 	c #658BB3",
"8 	c #6A8EB4",
"9 	c #6C8FB4",
"0 	c #0B2C52",
"a 	c #0E4583",
"b 	c #386AA1",
"c 	c #4575A7",
"d 	c #5480AF",
"e 	c #5985B1",
"f 	c #5D87B3",
"g 	c #5E87B3",
"h 	c #124682",
"i 	c #1D548E",
"j 	c #386BA1",
"k 	c #4676A9",
"l 	c #537FAE",
"m 	c #5F89B4",
"n 	c #638CB7",
"o 	c #6890B9",
"p 	c #164B84",
"q 	c #295E96",
"r 	c #3F71A5",
"s 	c #4E7DAD",
"t 	c #5984B2",
"u 	c #628AB5",
"v 	c #678FB9",
"w 	c #6991BA",
"x 	c #2A5B90",
"y 	c #32659C",
"z 	c #4475A8",
"A 	c #5583B2",
"B 	c #6089B6",
"C 	c #658DB7",
"D 	c #6B93BC",
"E 	c #6B92BB",
"F 	c #254160",
"G 	c #32659D",
"H 	c #4777AB",
"I 	c #5886B5",
"J 	c #6690BD",
"K 	c #6B93BE",
"L 	c #749CC5",
"M 	c #779EC6",
"N 	c #779EC7",
"O 	c #3B6B9C",
"P 	c #4676AB",
"Q 	c #5A88B7",
"R 	c #6B97C4",
"S 	c #749CC7",
"T 	c #7EA6CE",
"U 	c #84ACD1",
"V 	c #86AED1",
"W 	c #253B55",
"X 	c #5282B4",
"Y 	c #6894C3",
"Z 	c #76A2CE",
"` 	c #83ACD2",
" .	c #8FB8D2",
"..	c #93BCD2",
"+.	c #3D6188",
"@.	c #4D7CAF",
"#.	c #6190C2",
"$.	c #76A3D0",
"%.	c #87B2D2",
"&.	c #94BED2",
"*.	c #9AC3D2",
"=.	c #42668A",
"-.	c #5A86B5",
";.	c #6A99CA",
">.	c #82AED2",
",.	c #90BDD3",
"'.	c #95C2D3",
").	c #2B4057",
"!.	c #5881AD",
"~.	c #6E97C0",
"{.	c #7EA9CA",
"].	c #82ABC9",
"^.	c #354D66",
"/.	c #63809F",
"(.	c #637285",
"            . + @ + .             ",
"        # $ % & * & % $ #         ",
"      = - ; > , ' , > ; - =       ",
"    ) ! ~ { ] ^ / ^ ] { ~ ! )     ",
"  ( _ : < [ } | 1 | } [ < : _ (   ",
"  2 3 4 5 6 7 8 9 8 7 6 5 4 3 2   ",
"0 a 4 b c d e f g f e d c b 4 a 0 ",
"h i j k l m n o o o n m l k j i h ",
"p q r s t u v w w w v u t s r q p ",
"x y z A B C D E D E D C B A z y x ",
"F G H I J K L M N M L K J I H G F ",
"  O P Q R S T U V U T S R Q P O   ",
"  W r X Y Z `  ... .` Z Y X r W   ",
"    +.@.#.$.%.&.*.&.%.$.#.@.+.    ",
"      =.-.;.>.,.'.,.>.;.-.=.      ",
"        ).!.~.{.].{.~.!.).        ",
"            ^./.(./.^.            "};
