/* XPM */
static char * default_xpm[] = {
"85 67 255 2",
"  	c None",
". 	c #072A72",
"+ 	c #062A78",
"@ 	c #02267E",
"# 	c #161A5A",
"$ 	c #0A2A6C",
"% 	c #0E2A66",
"& 	c #0E2A62",
"* 	c #122E5A",
"= 	c #16265E",
"- 	c #122A5A",
"; 	c #12265A",
"> 	c #162659",
", 	c #16225A",
"' 	c #16165A",
") 	c #122A5F",
"! 	c #12225E",
"~ 	c #12225A",
"{ 	c #0E2A6A",
"] 	c #171E5A",
"^ 	c #16225E",
"/ 	c #162A5E",
"( 	c #162E56",
"_ 	c #162A56",
": 	c #121E62",
"< 	c #0E2666",
"[ 	c #122662",
"} 	c #0F2266",
"| 	c #122A66",
"1 	c #12265E",
"2 	c #16325A",
"3 	c #102262",
"4 	c #162A5A",
"5 	c #163256",
"6 	c #1A3256",
"7 	c #1A2256",
"8 	c #0E2E62",
"9 	c #1A2658",
"0 	c #1A2A56",
"a 	c #1A2E56",
"b 	c #223E5E",
"c 	c #1A3A61",
"d 	c #1E365E",
"e 	c #1E325A",
"f 	c #1A365A",
"g 	c #1E2A5E",
"h 	c #1E265D",
"i 	c #1A325A",
"j 	c #2F527B",
"k 	c #22365F",
"l 	c #16325E",
"m 	c #122E66",
"n 	c #1E365A",
"o 	c #1E3A5A",
"p 	c #1A2A5A",
"q 	c #162E5E",
"r 	c #1A2E5B",
"s 	c #264266",
"t 	c #1E3A62",
"u 	c #162E62",
"v 	c #122E62",
"w 	c #1A265E",
"x 	c #1E325E",
"y 	c #1D2E64",
"z 	c #0F2E6D",
"A 	c #2A4A6F",
"B 	c #2E4A6F",
"C 	c #22426B",
"D 	c #163264",
"E 	c #163665",
"F 	c #1E225D",
"G 	c #1E3263",
"H 	c #223A5A",
"I 	c #1A3662",
"J 	c #1A365E",
"K 	c #223A5E",
"L 	c #162E66",
"M 	c #1A3264",
"N 	c #2E466C",
"O 	c #3E627C",
"P 	c #365672",
"Q 	c #224266",
"R 	c #1A3667",
"S 	c #16366A",
"T 	c #1E2E5A",
"U 	c #1E3663",
"V 	c #1E3A5E",
"W 	c #1A2A64",
"X 	c #2E4E66",
"Y 	c #2E4666",
"Z 	c #2A4666",
"` 	c #26425E",
" .	c #2A4262",
"..	c #1E2E5E",
"+.	c #22325E",
"@.	c #263A60",
"#.	c #263E5E",
"$.	c #223E62",
"%.	c #3A5E74",
"&.	c #324E66",
"*.	c #2A4A6A",
"=.	c #3A5A72",
"-.	c #2A4662",
";.	c #223A66",
">.	c #1A3A68",
",.	c #12326D",
"'.	c #16326C",
").	c #264A71",
"!.	c #324E6C",
"~.	c #46667A",
"{.	c #1E3E66",
"].	c #264262",
"^.	c #1E3A66",
"/.	c #1A225B",
"(.	c #32526A",
"_.	c #2A4A65",
":.	c #2E4E6C",
"<.	c #426676",
"[.	c #36566E",
"}.	c #3E5E76",
"|.	c #466A7A",
"1.	c #223E6D",
"2.	c #1E3E6D",
"3.	c #264666",
"4.	c #26426B",
"5.	c #26466A",
"6.	c #365A72",
"7.	c #26466F",
"8.	c #36526D",
"9.	c #32526E",
"0.	c #466E80",
"a.	c #3E5E72",
"b.	c #26365E",
"c.	c #1E3A6B",
"d.	c #223E66",
"e.	c #2A426A",
"f.	c #3E6276",
"g.	c #2E4A66",
"h.	c #3A5A76",
"i.	c #325672",
"j.	c #466A82",
"k.	c #365A79",
"l.	c #36566A",
"m.	c #283E66",
"n.	c #426276",
"o.	c #273A66",
"p.	c #263E6A",
"q.	c #2A466C",
"r.	c #325272",
"s.	c #42667A",
"t.	c #3A5A6E",
"u.	c #3E5A6E",
"v.	c #324A6D",
"w.	c #234274",
"x.	c #365677",
"y.	c #364E6F",
"z.	c #32567A",
"A.	c #4A7282",
"B.	c #4E7686",
"C.	c #2E4E73",
"D.	c #3A566E",
"E.	c #466A7E",
"F.	c #527A8A",
"G.	c #4A6E82",
"H.	c #527A8F",
"I.	c #315276",
"J.	c #416683",
"K.	c #527686",
"L.	c #567E8E",
"M.	c #52768A",
"N.	c #3A5672",
"O.	c #375276",
"P.	c #4E7682",
"Q.	c #4E768A",
"R.	c #4E7282",
"S.	c #3E5A72",
"T.	c #4A6E87",
"U.	c #4A728A",
"V.	c #4A6E7E",
"W.	c #4E7287",
"X.	c #4A6A7E",
"Y.	c #42667E",
"Z.	c #5A8692",
"`.	c #527A86",
" +	c #568291",
".+	c #4E7A8E",
"++	c #3A5E7A",
"@+	c #4A7286",
"#+	c #42627E",
"$+	c #5A8696",
"%+	c #5A8292",
"&+	c #264A7A",
"*+	c #567E8A",
"=+	c #426A82",
"-+	c #2E4A6A",
";+	c #3F6284",
">+	c #4E7A8A",
",+	c #365272",
"'+	c #4E768E",
")+	c #568696",
"!+	c #527E8A",
"~+	c #2A4E78",
"{+	c #628E9A",
"]+	c #3E5E7E",
"^+	c #466E87",
"/+	c #5E8A96",
"(+	c #46667E",
"_+	c #5E8E9B",
":+	c #5E8696",
"<+	c #5A868E",
"[+	c #5A828E",
"}+	c #5A8A96",
"|+	c #426A87",
"1+	c #62929A",
"2+	c #5E8692",
"3+	c #5E8A92",
"4+	c #62929E",
"5+	c #3A5A7B",
"6+	c #527286",
"7+	c #628A96",
"8+	c #669AA6",
"9+	c #6696A2",
"0+	c #568297",
"a+	c #466A86",
"b+	c #527E8E",
"c+	c #5E8E96",
"d+	c #66929E",
"e+	c #628A9A",
"f+	c #5C8A9B",
"g+	c #527E97",
"h+	c #66969E",
"i+	c #668E9B",
"j+	c #6A9AA6",
"k+	c #58869C",
"l+	c #6A9EAA",
"m+	c #6AA2AE",
"n+	c #6EA2AE",
"o+	c #6EA2B2",
"p+	c #6EA6AE",
"q+	c #72A6B2",
"r+	c #6EA6B2",
"s+	c #72A6B6",
"t+	c #72AABA",
"u+	c #72AAB6",
"v+	c #76AABA",
"w+	c #76AEBA",
"x+	c #72AEBA",
"y+	c #76B2BE",
"z+	c #76AEBE",
"A+	c #7AB2BE",
"B+	c #7AB2C2",
"C+	c #7AB6C2",
"D+	c #2A366A",
"E+	c #56828A",
"F+	c #7ABAC6",
". + + @ # # $ . # # % % $ & # * = # # - ; ; * > * > > , , # , - , , ' , * * ; * * ) ! ~ ' ) - % % { % & & % % % $ { ) % { { & & & % 1 & 1 1 & [ 1 ) $ & & & & & & * * * * ",
"$ + + # ] + # # $ * & ) # # ) ^ # ] / ) ( _ # : ] # # ' : # ] : - & : < [ ! { < : } * > ; * % & & & - ( ( - & & _ - * - - - , # # - > _ _ _ > ; > > _ ( ) - ( - % < ) _ _ ",
"@ < # # * # # & < $ # # | = 1 # # < ! < ! ! < & # ] } ; ] # ( $ & & ; < { ~ ; ; * - ~ , - * - - - * ~ ~ - - - * * - * - - ] ] # * 1 < - - - ~ * * * - & $ < % < * - * - * ",
"2 * # # # 3 * ) & # ] ) 1 1 # ] > < & [ & & & # # ; # ] - - < > - - : - # # _ - - > > * _ ; ; _ * , , ; > # ] ] - ( _ - ~ # # ) % ! ~ ] ] # # - - ~ & & $ $ * * - * < ; _ ",
"- ( # # : 4 * ] # - ! = ^ ] [ < ) - ; & ) & * - - # # * & & * _ > ] , ' * * > ( ~ ] - ; ~ _ ; ( , ; ( - ] # # & - ; _ ( - # * < 1 - ~ - ] # * * ~ & ) % & - ~ ; 1 $ * ~ 5 ",
"* - ( ( _ 5 ( ( 6 _ & ! - 4 - > ] ; 5 & ~ - _ * # ( ( > _ > - * 5 7 - * - ~ ~ ~ # - ; - , ~ _ - ] _ # # - 4 & - - * 5 & # ( 8 - - ~ # # # ( > ~ & & $ & * ~ ) , ~ , , ; & ",
"* 6 ( > 5 5 6 > 9 6 6 > > 0 , , ( * ; 9 a > 7 # # 0 5 * 5 a ( 5 7 7 5 5 6 7 ] ~ - 0 9 - & ( > & - # # ( 5 ( ) 6 6 5 - # ] _ ( _ , , # 6 - ; ( ( % v ( , : 5 ) ~ ~ ~ ; $ ( ",
"6 > 0 6 a 0 _ 6 5 _ ] 9 a 9 # a 5 a 6 5 ( # # ] a 5 6 5 a 5 6 ; > 5 ( _ - ] > 0 ] b c d e 4 ( ] # 5 2 2 / _ 6 * ( * ) a ( 5 _ ] ] # 6 - ; * v m * q ( , a > ~ ] ; , > ( 2 ",
"0 _ 5 _ , a 5 f 9 # _ ( ( 0 _ a 5 _ 0 6 ! # # 5 6 5 9 > a * ~ ' ( - - > _ e g h i ( / 2 * # # ( 4 = 0 j k ( l l m ) , a a a > # 6 5 5 ~ q v C.!.( 9 6 5 ) : * ] * ] - * 6 ",
"g 6 6 7 n o o 6 a 9 p 6 9 9 6 _ 0 6 2 ) q l 6 0 _ 0 f ( l 2 ] 1 ) 6 0 e n n p > = q * r # ] 4 = i s j 2 / 2 t c 0 ] 6 _ i # # n f a > { 8 *.5 4 i 2 2 6 : a p i = / % m D ",
"o o n o o a ( > * ) 5 f o u v 5 o v [ l i p r 6 f l / 5 q = = n f w g x y w w / q r # # q z i A B C D i y E m | F 0 G # # n o H p o 8 m g.p h 2 n 6 / ^ a l | E p z $ E f ",
"H H o o o i e I u J e H i q o K p x * 9 F H f H n n J ) p i o H K F L u 1 ! = p E # E M t b N O P I Q R t S b w p g # # H f o T H n q 5.9 o c V o 2 : i t / I J ,.E ,.i o ",
"b o H o T x J i r U n M I k n / V t K p n n J M H I u / x r d i W w p ] : / R # ] H o t X P Y Z E t S I K b h G # ] T b H b ` r V I o.h n H c f m w h J '.,.d '.,.,.E K H ",
" .` ` ..t b +.@.G r V o f d r I t #.#.$.i M H V I L r y I k r G R h F ^ k K # # n o R %.&.K *.S S t ` b t h p # ] r b ` J J 9 =.y.o.#.H o I K #.g g b $.,.K E ,.R t R K #.",
"-.#.K r ` x n E e ;.T G e M >.#.#.` I V V b #.,.V g x ..b R  .F w w '.L K K ] n K ).%.d H Z ,.z b b o V d g # +.+.K t V K ` !.~.D+T o V I $.V I /.` R {.{.c.>.,.{. .{.{.>.",
"Y {.K ].K b b M k x i r t >.]. .` d I #.-.` ,.G R M x ^.k y w /.g g L W g # n (.j _. ._.:.` -.V #.V V x p r +.d {.<.o (.[.}.|.%.k o g.j R V R y b. .-. .d.Q V  .^.>.U ` d.",
"1.T o n n b J k b e @.R R @.K i c 2.$.#.3.R M y +.4.5.W M h g /.W w x K b H 6.[.7.2.8.-. .` b V I b -.x t k -.9.=.[.X 0.a.=.^.].-.#.i.` #._.k K -.-.-. . .$.{.s 2.Q ]. .d.",
"#.r  .d #.U ;.@.b. .>.$.c._.].I d. .V 3.D L L r A @.g g e.y h y h g #.].}.f.A 2. .g.`  .3.d.d 3.` b T d.Z s h.[.i.b j.X b k.!.Q -+A Z ].q.4.-+g.b b g.-.Q ^.s :.s Q C 5.[.",
"l.+.K g.K >.m.s ].;.k  .n. .s c.d.t d 2.G Z y ;.g M y o.p.W ..h ] q.f.f.8. .d.3.(.-.b #.Q 3. .b ` 3.8.9.r.=.%.~.X s.:.:.t.:.8.d._.H !.5.&.X b ` -._.Q ].Q 2.r.X 5.c.P ~+X ",
"u.N Y Z v.w.o.g.k p.O f.(.X d.R A K R C I 2.+.^.W 1.x.N !.x y w }.f.8.=.` {.&.g. .Z 5.*.` 8.b (.t.y.(.z.k.%.n.A.=.B.f.!.8.A >._.H O &._.o K ].-.f.[.g.:.(.z.7.r.!.n.:.4.&.",
"t.N  .Z y.v.-.[.f.n. .}.8.;.s C.:.7.>.t E 5.c.{.7.%.B e.v.x D.E.E.f.f.-.d.t.n.` H t.w. .8.b #.l.X l.F.G.}.=.0.%.H.h.~.f.[.t t.f.n.=.!.$.b q.n.!. .D.1.-+|.7.X.0.O O C 7.8.",
"D.y.8.t.[.X =.n.}.D.%._.7.1.I.(.*.!.1.4.(.*.>.D.B.m.v.N $.s.E.f.s.E.D.A [.J.n.b :.D.[.` -.u.=.f.K.L.f.%.(.B.F.M.B.n.f.n.n.Y n.N.P (+k.K :.8.:.g.x.7.C.E.D.V.<.J.z.A C.4.:.",
"u.[.O.g.8.u.}.n.t.8.q.1.{.C.d.p.r.A !.q.7.i.P.Q.e.k.o.q.F.B.R.Q.0.%.j %.j.%.S.D.D.D.a.s.%.A.T.L.U.a.S.V.K.W.B.X.|.=.(.P Y.E.(.~.<.~.A ~+-+=.h.k.A q.f.~.R.H.K.P (.:.).A P ",
"N y.n.[.O |.V.V.n.A w.>.:.d.q.%.=.(.j Q.B.M.s.q.!.o.O Z.`. +0.a.!.k.w.n.n.a.f.|.B.B.A.V.X.F..+J.Y.X.K.F.B.~.~.%.n.|.S.|.(.8.N.[.=.9.=.-+6.x.t.[.*.6.6+b+L.>+r.B !.q.C.r.r.",
"!.f.<.n.~.R.E.G.I.Z N.1.q.:.X.K.B.++@+F.G.}.v.p.N.#+$+W.%+}.W.f.}.&+B.G.R.R.|.`.*+K.K.=+E.z.=+T.0.B.W.L.<.<.D.~.E.k.}.(.f.-+8.S.=.j.#+~.X.n.}.!.7.Q.%+Q.:.(.).t.%.,+A j I.",
"n.~.E.E.A.E.W.i.9.4.{.9.j.W.B.P.;+Q.>+L.|.,+C.*+'+G.)+!+V.F.|.(.~.B.P.=+G.|.L.L.*+E.s.}.~+O |.<.K.{+|.s.V.R.s.%.N.~.%.<.}.6.f.]+K.|.=+B.|.a.j k.'+$+b+6.(.<.D.a.f.z.k.n.n.",
"<.~.V.B.A.Q.~.A A ^.s.=+V.E.A.`.>+V.`.W.O.,+L.^+$+/+ +`.B.~.G.=+0.s.~.K.R.L.F.L.Y.E.(+2.~+E.V.$+_+B.R.V.E.~.}.6.%.V.(+~.n.~.0.E.R.M.`.A.0.z.k.Q._+B.J.=.V.R.0.R.|.}.f.<.<.",
"V.A.R.W.B.=+*.P *.K.R.`.|.*+:+ +R.K.G.y.j.U.)+Q./+Z.`.A.~.P.`.|.n.F. +<+Z./+*+0.=+++z.;+E.B. +$+B.G.s.~.V.f.E.E.X.|.|.s.B.[+B.Q.Q.K.H.Q.z.}.%+ +F.n.k.`.F.`.K.V.|.f.n.~.E.",
"R.`.<.V.f.=+q.6.`.P.M.K.F.}+M.M.A.V.F.H. +$+_+/+/+:+~.B.A.|.A.B.<+[+*+%+`.`.Q.M.Q.|+E.|.Q.Q.!+K.R.|.0.G.X.0.|.>+E.|.K.!+)+>+Y.@+`.P.R.h.7. +`.`.G.s.F.L.M.A.A.B.n.%.f.~.~.",
"`.E.s.A.}.=.6.M.K.$+K.$+{+M.B.R.R.@+ +[+/+1+_+_+/+W.>+%.V.F.F.%+[+L.:+/+2+U.X.++k.x.|.%+_+B.A.E.B.G.X.V.0.|.V.~.*+ +B.R.A.G.|+J.s.F.B.I./+B.B.F.E+*+|+*+P.K.K.s.O K.|.|.0.",
"R.[+K.*+E.K.*+Z.3+3+1+F.*+3+`.@+F.$+$+$+4+4+/+3+F.'+++>+[+[+P.B.2+4+Z. +X..+J.5+@+Z.}+ +6+K.3+3+F.P.*+R.X.L.|+>+F.$+L.*+L.*+R.j.*+3+Y.9+Z.L.7+Z.2+K.[+K.`.`.V.V.A.6+K.K.*+",
"<+<+[+ +[+3+3+3+2+4+%+3+ +*+>+7+$+3+)+8+9+3+ +0+|+F.!+%+<+[+2+2+<+ +[+M.a+j O $+Z./+*+:+3+2+2+:+2+L.]+ +b+Q.*+*+/+2+<+*+*+*+U.Q.Q.]+{+[+[+2+Z.F.*+[+`.V.!+K.R.`.*+*+ +<+K.",
"[+}+3+Z.:+:+%+3+2+3+2+*+Z.*+/+}+{+2+c+4+/+7+.+b+L.%+<+:+3+}+<+[+[+3+3+O ^+k.}+Z.F.L.3+2+}+'+!+*+K.U.*+Q.|+2+2+/+_+Z.2+Z.Z.^+.+*+=+1+>+H.*+3+*+3+2+*+2+F.!+=+*+K.R.*+*+)+!+",
"L.2+2+2+3+3+3+$+3+2+ +L.Q. +$+2+c+}+{+Z.2+Q.'+ +<+<+2+<+ +[+L.Z.3+[+@+B.T.d+{+*+3+3+2+!+2+}+W.b+|+J.'+U.b+}+4+_+[+%+*+3+.+Q.M.++/+.+2+2+3+2+3+Z.}+Z.B.*+2+2+M.Q.B.<+[+*+L.",
"<+Z.<+Z.Z.:+3+Z.3+*+R.A.0+_+_+/+7+/+3+/+$+<+<+[+[+Z.Z.2+<+Z.<+2+Z.>+Q.}+Z.3+!+2+:+Z.2+3+2+<+2+Z./+Z.a+L.$+Z.7+Z.2+}+2+;+T.%+j.)+%+Z.}+Z.Z.2+3+2+[+b+F.3+3+Z.2+}+2+Z.[+2+<+",
":+2+:+3+3+3+2+/+Q.2+.+ +3+c+/+/+Z.3+/+3+3+Z.2+<+)+3+2+Z./+2+:+}+L.#+3+d+0.Q.2+}+}+3+3+2+3+2+3+2+2+3+.+_+_+_+}+3+}+[+^+'+}+@+$+:+$+3+2+/+3+3+2+3+B.K.Z.:+2+2+Z.[+3+3+3+Z.2+",
"3+}+2+/+Z.3+2+3+>+B._+e+2+7+3+7+Z./+/+/+/+<+ +3+Z.}+3+3+/+3+2+/+@+:+4+:+3+3+2+2+Z.$+}+2+/+Z.}+}+|+H.%+{+3+2+2+2+ +^+;+<+;+0+4+3+:+Z.2+:+$+/+3+Z.Z.3+}+}+3+3+3+Z.3+3+3+}+3+",
"Z.7+/+3+7+/+3+*+F./+7+3+/+3+/+3+{+7+/+c+/+ +7+3+7+7+3+2+2+Z.3+F.0+1+7+3+/+/+3+3+7+3+2+/+3+7+7+7+T.:+)+/+2+3+.+M.*+U.Q.(+)+{+3+2+3+3+3+}+7+3+:+7+3+2+2+2+/+/+2+7+/+2+2+7+/+",
"Z.7+7+/+/+7+L.W.Z.c+/+7+_+7+3+/+c+7+{+7+7+/+7+3+3+7+/+}+7+7+M.Q.:+/+7+7+7+7+7+/+7+3+3+7+/+/+3+/+7+{+/+3+/+H..+7+L.L.Q.'+{+/+/+3+2+7+2+3+3+3+Z.Z./+7+7+3+7+}+/+2+}+3+3+7+7+",
"{+_+_+{+e+_+_+4+4+/+{+1+1+_+_+{+{+_+/+c+c+{+/+{+{+_+{+{+_+_+_+9+{+{+_+_+_+_+_+e+_+_+_+_+{+e+{+{+}+_+{+f+H.e+{+H.b+_+_+7+{+7+7+/+_+c+3+3+e+/+{+e+{+_+{+e+3+e+3+_+7+/+e+_+_+",
"{+{+_+1+_+{+_+_+4+_+_+_+1+{+_+4+4+4+{+{+_+1+_+_+{+_+c+{+{+9+9+{+_+{+{+{+{+{+1+_+{+{+{+_+1+_+_+ +{+_+1+H.4+_+_+{+{+{+_+/+/+/+{+{+e+_+_+2+2+_+1+_+{+c+_+{+1+/+{+_+{+1+_+{+{+",
"1+4+1+_+1+1+4+4+{+1+4+4+4+4+4+4+4+1+4+1+1+{+{+1+1+1+4+1+8+8+4+1+1+1+1+1+4+1+_+1+1+1+1+1+_+{+$+4+4+4+g+4+_+4+1+1+_+1+{+4+{+{+_+_+1+1+{+1+1+1+_+1+1+4+1+4+_+4+1+{+4+_+1+1+4+",
"1+4+d+4+4+4+4+4+4+1+1+4+4+4+4+4+4+1+4+4+4+1+4+{+4+4+4+1+h+4+4+4+4+4+4+1+4+d+4+4+4+4+{+i+{+ +1+4+b+g+4+d+4+4+{+i+{+{+{+4+1+{+d+4+4+4+4+4+4+d+4+4+4+4+1+d+4+4+4+4+4+4+4+1+4+",
"4+h+h+d+d+9+d+h+h+d+d+4+h+4+d+4+4+d+d+h+9+d+d+h+d+d+h+d+4+4+h+4+h+4+4+4+4+h+d+d+d+4+{+{+ +9+d+g+d+4+h+h+d+d+{+1+{+i+i+{+d+d+h+h+d+h+h+d+d+h+h+h+h+d+4+h+h+d+h+d+9+d+4+9+h+",
"d+d+9+9+d+9+d+d+9+9+9+d+9+9+9+9+9+9+d+d+4+{+d+9+9+d+9+9+9+d+9+d+9+9+9+9+d+9+9+9+i+i+d+$+$+9+0+9+9+d+d+4+4+d+i+i+1+1+d+9+9+d+d+9+d+d+9+9+d+d+d+d+9+9+d+d+9+d+9+d+9+9+d+d+9+",
"8+8+9+9+8+9+8+8+9+9+9+8+9+9+9+9+9+9+8+8+9+9+8+9+9+8+9+9+9+8+9+8+9+9+9+9+8+9+9+9+9+1+ +)+8+0+8+9+9+8+8+d+{+9+9+1+i+9+9+9+9+8+8+9+8+8+9+9+8+8+8+8+9+9+8+8+9+8+9+8+9+9+8+8+9+",
"8+8+8+9+8+8+9+8+8+j+9+j+8+j+j+8+8+9+8+j+8+9+8+8+9+8+j+8+9+j+9+j+j+j+j+8+8+8+9+9+8+9+8+9+k+0+8+8+9+8+8+j+9+9+9+4+9+8+8+8+8+9+8+8+9+8+8+8+9+9+9+8+j+8+9+8+8+8+8+8+j+9+9+8+8+",
"j+j+j+j+j+j+j+j+j+8+j+8+j+8+8+l+l+l+j+8+j+j+j+j+j+j+8+j+j+8+j+8+8+8+8+j+j+j+8+8+8+8+j+k+8+j+j+j+j+j+j+8+8+8+8+j+j+j+j+j+j+j+j+j+j+j+j+j+j+j+j+j+8+j+j+j+j+j+j+j+8+j+j+j+j+",
"j+8+l+j+8+l+j+8+j+l+j+8+l+l+j+j+j+j+j+j+l+8+j+l+8+j+j+l+j+l+j+j+j+j+8+8+8+l+j+j+j+j+4+g+8+8+j+l+8+8+j+j+l+j+8+l+8+j+j+8+l+j+j+l+8+j+8+l+l+l+8+j+8+l+8+j+8+j+j+j+l+l+j+j+j+",
"l+l+l+l+l+l+l+l+l+m+m+n+n+l+n+m+n+m+n+m+m+o+m+m+o+o+m+m+m+l+l+l+l+l+l+l+l+l+l+l+l+l+l+l+l+l+l+l+l+l+l+l+l+l+l+l+l+l+l+l+l+l+l+l+l+l+l+l+l+l+l+l+l+l+l+l+l+l+l+l+l+l+l+l+l+",
"m+l+m+l+l+l+l+l+l+n+m+l+o+o+n+m+o+m+o+o+m+o+l+m+m+o+l+o+m+m+m+m+l+l+n+n+l+l+l+l+l+l+l+m+m+m+l+l+m+m+m+l+l+m+l+m+l+m+l+l+l+l+l+m+m+l+l+l+l+m+m+l+l+l+l+m+l+m+m+l+l+l+l+m+l+",
"l+l+l+m+l+m+o+o+o+m+n+n+n+m+m+m+m+o+m+m+o+m+o+m+m+m+o+m+o+o+o+o+o+o+m+m+o+m+m+m+m+l+l+l+l+l+l+m+l+l+l+l+m+l+l+l+m+l+m+l+m+m+l+l+l+m+l+l+l+l+l+m+l+m+m+l+m+l+l+l+l+m+m+l+n+",
"o+o+n+o+o+n+m+n+o+m+n+m+o+o+o+o+m+o+o+m+o+m+o+l+l+o+o+m+m+m+m+m+n+n+o+m+n+o+n+o+o+o+o+o+o+o+n+n+n+o+n+n+n+n+o+n+o+n+o+o+n+o+o+o+n+o+o+o+o+o+n+o+o+n+n+n+n+o+o+o+n+n+o+m+n+",
"p+p+n+p+p+p+q+p+p+o+o+q+r+r+q+r+s+t+r+q+r+s+o+s+q+r+r+s+s+t+s+q+r+r+r+q+o+n+p+n+p+p+q+p+p+p+n+q+p+p+p+p+r+r+p+p+p+n+p+p+o+p+p+p+n+p+p+p+q+p+n+p+p+n+r+n+p+p+p+p+r+p+p+q+p+",
"p+q+p+p+r+p+r+q+q+p+r+p+q+r+q+u+s+q+r+r+r+t+s+r+r+u+u+u+u+r+r+r+r+p+p+q+q+s+u+q+u+r+q+p+p+u+u+r+u+u+u+v+p+q+r+r+q+r+r+p+r+r+r+r+p+r+p+p+q+q+r+q+r+q+p+r+r+r+r+p+r+p+p+r+r+",
"s+r+s+s+s+r+q+r+r+s+s+t+t+v+t+u+u+r+s+s+s+r+t+t+u+u+r+r+q+s+s+q+s+s+r+u+u+u+t+s+u+u+r+s+u+r+r+s+q+q+q+u+s+r+s+q+r+q+q+s+q+q+q+s+s+q+s+r+r+r+q+r+q+r+s+s+q+q+q+s+s+s+r+s+q+",
"t+u+r+u+t+t+u+u+u+t+v+w+x+w+u+u+t+x+u+u+v+w+u+t+t+t+t+u+u+u+t+u+t+w+r+r+u+v+u+t+u+t+x+u+s+s+u+r+r+r+u+q+s+s+u+t+u+r+t+u+u+u+u+u+u+r+s+s+u+u+s+u+u+u+u+u+u+u+r+s+u+s+u+u+u+",
"u+t+x+u+u+u+t+w+x+x+t+u+u+u+u+t+u+u+t+t+t+v+u+u+u+u+u+t+u+t+x+t+u+t+t+v+u+u+u+w+t+u+u+u+x+x+u+t+t+s+r+x+u+x+t+u+t+x+u+t+t+t+x+x+x+z+w+u+t+t+x+t+t+u+u+t+t+x+z+x+t+x+u+t+u+",
"x+u+t+u+t+w+v+u+w+w+t+u+v+t+w+w+x+w+t+v+t+x+x+x+x+x+u+x+y+v+x+u+u+u+t+u+x+x+x+x+x+u+t+u+u+x+u+u+z+x+u+x+u+u+x+x+t+x+x+x+u+u+u+t+x+x+x+u+u+u+x+u+x+t+x+w+t+u+y+u+u+u+x+x+x+",
"t+v+x+w+w+v+t+z+x+x+w+z+x+w+x+t+z+x+y+y+x+t+v+u+u+x+y+w+v+u+v+w+x+w+x+y+w+y+y+v+t+w+x+x+x+x+x+y+x+v+t+t+x+x+x+x+w+x+x+t+x+x+x+u+v+v+t+t+x+w+x+x+x+y+x+x+w+y+t+x+t+x+t+t+t+",
"y+x+x+y+y+x+w+y+w+y+y+y+x+y+y+w+y+y+y+w+y+y+y+y+y+x+y+y+y+x+x+w+x+y+y+y+y+y+y+y+x+w+w+w+w+y+z+y+x+y+w+w+w+w+w+x+w+w+y+w+w+z+z+x+y+w+y+z+t+w+y+y+t+v+y+w+v+w+w+z+y+y+y+y+w+",
"z+A+B+y+y+A+y+z+y+y+y+y+B+y+z+y+y+y+w+y+y+y+y+y+z+A+y+y+y+y+B+y+A+y+z+y+y+y+y+z+A+y+y+y+y+y+y+y+B+y+y+y+y+y+y+A+y+y+z+y+y+y+y+A+y+y+y+y+A+y+y+y+A+y+y+y+y+y+y+y+y+y+w+z+y+",
"y+y+y+y+y+A+B+A+A+A+A+y+A+y+A+A+y+y+y+A+y+A+A+A+y+y+y+y+A+y+B+y+B+y+y+y+A+y+A+y+A+B+B+y+A+y+y+y+y+A+B+B+A+A+y+A+A+A+A+B+A+A+y+y+y+A+y+y+B+A+A+y+A+A+y+y+A+y+A+y+y+A+A+A+A+",
"B+C+B+B+C+C+C+y+y+y+y+A+y+C+y+y+A+C+A+y+A+y+y+C+A+C+A+B+y+A+y+C+y+C+C+A+y+A+C+B+y+y+y+B+y+C+A+A+B+y+y+y+y+y+B+y+y+C+y+y+y+C+B+B+B+y+B+B+y+y+y+y+C+y+B+A+y+B+C+A+C+C+C+y+y+",
"C+C+C+C+C+C+C+C+C+C+C+C+C+C+C+C+C+C+C+C+C+C+C+C+C+C+C+C+C+C+C+C+C+C+C+C+C+C+C+C+C+C+C+C+C+C+C+C+C+C+C+C+C+C+C+C+C+C+C+C+C+C+C+C+C+C+C+C+C+C+C+C+C+C+C+C+C+C+C+C+C+C+C+C+C+",
"C+F+F+C+C+C+F+C+F+F+F+F+C+F+C+C+C+F+C+C+C+C+C+C+C+F+F+F+C+F+C+F+C+C+C+C+F+C+F+F+F+F+F+C+C+F+F+C+F+C+F+F+F+F+F+C+C+F+F+C+C+F+C+F+C+F+F+C+C+C+F+C+C+C+F+C+F+C+C+C+C+C+F+F+F+",
"C+C+F+F+F+C+F+C+C+C+C+F+C+F+F+F+C+F+F+F+F+F+F+F+C+C+C+F+C+F+C+F+F+F+F+C+F+C+C+C+C+C+F+F+C+C+F+C+F+C+C+C+C+C+F+F+C+C+F+F+C+F+C+F+C+C+F+F+F+C+F+F+F+C+F+C+F+F+F+F+F+C+C+C+F+"};
