/* XPM */
static char * unknown_xpm[] = {
"97 78 4 1",
" 	c None",
".	c #999999",
"+	c #333333",
"@	c #CCCCCC",
".................................................................................................",
".................................................................................................",
".................................................................................................",
"...+++++++++++++++++++++++++++++++++++++++++++++++++++++++++++++++++++++++++++++++++++++++++.....",
"...+@@@@@@@@@@@@@@@@@@@@@@@@@@@@@@@@@@@@@@@@@@@@@@@@@@@@@@@@@@@@@@@@@@@@@@@@@@@@@@@@@@@@@@@@.....",
"...+@.....................................................................................+@.....",
"...+@.....................................................................................+@.....",
"...+@.....................................................................................+@.....",
"...+@.....................................................................................+@.....",
"...+@.....................................................................................+@.....",
"...+@.....................................................................................+@.....",
"...+@.....................................................................................+@.....",
"...+@.....................................................................................+@.....",
"...+@.....................................................................................+@.....",
"...+@.....................................................................................+@.....",
"...+@.....................................................................................+@.....",
"...+@.....................................................................................+@.....",
"...+@.....................................................................................+@.....",
"...+@.....................................................................................+@.....",
"...+@.....................................................................................+@.....",
"...+@.....................................................................................+@.....",
"...+@.....................................................................................+@.....",
"...+@.....................................................................................+@.....",
"...+@.....................................................................................+@.....",
"...+@.....................................................................................+@.....",
"...+@.....................................................................................+@.....",
"...+@.....................................................................................+@.....",
"...+@.....................................................................................+@.....",
"...+@.....................................................................................+@.....",
"...+@.....................................................................................+@.....",
"...+@.....................................................................................+@.....",
"...+@.....................................................................................+@.....",
"...+@.....................................................................................+@.....",
"...+@.....................................................................................+@.....",
"...+@.....................................................................................+@.....",
"...+@.....................................................................................+@.....",
"...+@.....................................................................................+@.....",
"...+@.....................................................................................+@.....",
"...+@.....................................................................................+@.....",
"...+@.....................................................................................+@.....",
"...+@.....................................................................................+@.....",
"...+@.....................................................................................+@.....",
"...+@.....................................................................................+@.....",
"...+@.....................................................................................+@.....",
"...+@.....................................................................................+@.....",
"...+@.....................................................................................+@.....",
"...+@.....................................................................................+@.....",
"...+@.....................................................................................+@.....",
"...+@.....................................................................................+@.....",
"...+@.....................................................................................+@.....",
"...+@.....................................................................................+@.....",
"...+@.....................................................................................+@.....",
"...+@.....................................................................................+@.....",
"...+@.....................................................................................+@.....",
"...+@.....................................................................................+@.....",
"...+@.....................................................................................+@.....",
"...+@.....................................................................................+@.....",
"...+@.....................................................................................+@.....",
"...+@.....................................................................................+@.....",
"...+@.....................................................................................+@.....",
"...+@.....................................................................................+@.....",
"...+@.....................................................................................+@.....",
"...+@.....................................................................................+@.....",
"...+@.....................................................................................+@.....",
"...+@.....................................................................................+@.....",
"...+@.....................................................................................+@.....",
"...+@.....................................................................................+@.....",
"...+@.....................................................................................+@.....",
"...+@.....................................................................................+@.....",
"...+@.....................................................................................+@.....",
"...+@.....................................................................................+@.....",
"...+@.....................................................................................+@.....",
"...+@++++++++++++++++++++++++++++++++++++++++++++++++++++++++++++++++++++++++++++++++++++++@.....",
"...+@@@@@@@@@@@@@@@@@@@@@@@@@@@@@@@@@@@@@@@@@@@@@@@@@@@@@@@@@@@@@@@@@@@@@@@@@@@@@@@@@@@@@@@@.....",
".................................................................................................",
".................................................................................................",
".................................................................................................",
"................................................................................................."};
