/* XPM */
static char * bottom_left_inactive_xpm[] = {
"6 6 8 1",
" 	c None",
".	c #888D97",
"+	c #C0C4CB",
"@	c #CBCFD5",
"#	c #9EA3AD",
"$	c #C6C9D0",
"%	c #A6ABB3",
"&	c #D3D6DB",
".+++@#",
".+++@@",
".+++++",
".$$+++",
".%&&&&",
" ....."};
