/* XPM */
static char * bottom_right_inactive_xpm[] = {
"6 6 8 1",
" 	c None",
".	c #9EA3AD",
"+	c #CBCFD5",
"@	c #C0C4CB",
"#	c #888D97",
"$	c #C6C9D0",
"%	c #D3D6DB",
"&	c #A6ABB3",
".+@@@#",
"++@@@#",
"@@@@@#",
"@@@$$#",
"%%%%&#",
"##### "};
