/* XPM */
static char * bottom_left_active_xpm[] = {
"6 6 11 1",
" 	c None",
".	c #2B2E33",
"+	c #CCCFD5",
"@	c #ABB0BA",
"#	c #AAAFB9",
"$	c #959EA7",
"%	c #6C7280",
"&	c #D5D8DD",
"*	c #BDC1C8",
"=	c #81848A",
"-	c #EBECEE",
".+@#$%",
".+@#$$",
".+@###",
".&*@@@",
".=----",
" ....."};
