/* XPM */
static char * left_active_xpm[] = {
"6 25 7 1",
" 	c None",
".	c #2B2E33",
"+	c #CCCFD5",
"@	c #ABB0BA",
"#	c #AAAFB9",
"$	c #959EA7",
"%	c #6C7280",
".+@#$%",
".+@#$%",
".+@#$%",
".+@#$%",
".+@#$%",
".+@#$%",
".+@#$%",
".+@#$%",
".+@#$%",
".+@#$%",
".+@#$%",
".+@#$%",
".+@#$%",
".+@#$%",
".+@#$%",
".+@#$%",
".+@#$%",
".+@#$%",
".+@#$%",
".+@#$%",
".+@#$%",
".+@#$%",
".+@#$%",
".+@#$%",
".+@#$%"};
