/* XPM */
static char * right_inactive_xpm[] = {
"6 25 5 1",
" 	c None",
".	c #9EA3AD",
"+	c #CBCFD5",
"@	c #C0C4CB",
"#	c #888D97",
".+@@@#",
".+@@@#",
".+@@@#",
".+@@@#",
".+@@@#",
".+@@@#",
".+@@@#",
".+@@@#",
".+@@@#",
".+@@@#",
".+@@@#",
".+@@@#",
".+@@@#",
".+@@@#",
".+@@@#",
".+@@@#",
".+@@@#",
".+@@@#",
".+@@@#",
".+@@@#",
".+@@@#",
".+@@@#",
".+@@@#",
".+@@@#",
".+@@@#"};
