/* XPM */
static char * right_active_xpm[] = {
"6 25 7 1",
" 	c None",
".	c #6C7280",
"+	c #959EA7",
"@	c #AAAFB9",
"#	c #ABB0BA",
"$	c #CCCFD5",
"%	c #2B2E33",
".+@#$%",
".+@#$%",
".+@#$%",
".+@#$%",
".+@#$%",
".+@#$%",
".+@#$%",
".+@#$%",
".+@#$%",
".+@#$%",
".+@#$%",
".+@#$%",
".+@#$%",
".+@#$%",
".+@#$%",
".+@#$%",
".+@#$%",
".+@#$%",
".+@#$%",
".+@#$%",
".+@#$%",
".+@#$%",
".+@#$%",
".+@#$%",
".+@#$%"};
