/* XPM */
static char * title_1_active_xpm[] = {
"6 25 22 1",
" 	c None",
".	c #2B2E33",
"+	c #F0F1F2",
"@	c #E3E5E8",
"#	c #DFE1E5",
"$	c #DBDDE1",
"%	c #D6D8DD",
"&	c #D0D3D8",
"*	c #CBCED4",
"=	c #C6C9D0",
"-	c #C3C7CE",
";	c #C0C4CB",
">	c #BDC1C9",
",	c #BABEC6",
"'	c #B7BCC4",
")	c #B5B9C2",
"!	c #B2B7C0",
"~	c #B0B5BE",
"{	c #AEB3BC",
"]	c #ACB1BB",
"^	c #AAAFB9",
"/	c #6C7280",
"......",
"++++++",
"@@@@@@",
"######",
"$$$$$$",
"%%%%%%",
"&&&&&&",
"******",
"======",
"------",
";;;;;;",
">>>>>>",
",,,,,,",
"''''''",
"))))))",
"!!!!!!",
"~~~~~~",
"{{{{{{",
"]]]]]]",
"^^^^^^",
"^^^^^^",
"^^^^^^",
"^^^^^^",
"^^^^^^",
"//////"};
