/* XPM */
static char * top_left_active_xpm[] = {
"5 25 48 1",
" 	c None",
".	c #2B2E33",
"+	c #95979A",
"@	c #F0F1F2",
"#	c #EEEFF1",
"$	c #E4E6E9",
"%	c #E3E5E8",
"&	c #ECEDEF",
"*	c #DFE1E5",
"=	c #E9EBED",
"-	c #DBDDE1",
";	c #E6E8EB",
">	c #D6D8DD",
",	c #D0D3D8",
"'	c #E0E2E5",
")	c #CBCED4",
"!	c #DDDFE3",
"~	c #C6C9D0",
"{	c #DBDDE2",
"]	c #C3C7CE",
"^	c #D9DCE0",
"/	c #C0C4CB",
"(	c #D7DADF",
"_	c #BEC1C9",
":	c #BDC1C9",
"<	c #BBBFC6",
"[	c #BABEC6",
"}	c #D4D7DC",
"|	c #B8BDC4",
"1	c #B7BCC4",
"2	c #D3D5DA",
"3	c #B6BAC2",
"4	c #B5B9C2",
"5	c #D1D4D9",
"6	c #B3B8C0",
"7	c #B2B7C0",
"8	c #B1B6BF",
"9	c #B0B5BE",
"0	c #CED1D7",
"a	c #AFB4BD",
"b	c #AEB3BC",
"c	c #CDD0D6",
"d	c #ADB2BC",
"e	c #ACB1BB",
"f	c #CCCFD5",
"g	c #ABB0BA",
"h	c #AAAFB9",
"i	c #959EA7",
" ....",
".+@@@",
".#$%%",
".&***",
".=---",
".;>>>",
".%,,,",
".')))",
".!~~~",
".{]]]",
".^///",
".(_::",
".><[[",
".}|11",
".2344",
".5677",
".,899",
".0abb",
".cdee",
".fghh",
".fghh",
".fghh",
".fghh",
".fghh",
".fghi"};
