/* XPM */
static char * top_right_inactive_xpm[] = {
"5 25 28 1",
" 	c None",
".	c #888D97",
"+	c #AAAFB7",
"@	c #9A9FA8",
"#	c #ABAFB8",
"$	c #ACB0B9",
"%	c #ADB1BA",
"&	c #AEB2BB",
"*	c #AFB3BB",
"=	c #B0B4BC",
"-	c #B1B5BD",
";	c #B2B6BE",
">	c #B3B7BF",
",	c #B3B7C0",
"'	c #B4B8C0",
")	c #B5B9C1",
"!	c #B6BAC2",
"~	c #B7BBC3",
"{	c #B8BCC4",
"]	c #B9BDC5",
"^	c #BABEC5",
"/	c #BBBFC6",
"(	c #BCC0C7",
"_	c #BDC1C8",
":	c #BEC2C9",
"<	c #BEC2CA",
"[	c #CBCFD5",
"}	c #BFC3CA",
".... ",
"+++@.",
"####.",
"$$$$.",
"%%%%.",
"&&&&.",
"****.",
"====.",
"----.",
";;;;.",
">>>>.",
",,,,.",
"''''.",
")))).",
"!!!!.",
"~~~~.",
"{{{{.",
"]]]].",
"^^^^.",
"////.",
"((((.",
"____.",
"::::.",
"<<<<.",
"[}}}."};
