/* XPM */
static char * top_right_active_xpm[] = {
"5 25 48 1",
" 	c None",
".	c #2B2E33",
"+	c #F0F1F2",
"@	c #95979A",
"#	c #E3E5E8",
"$	c #E4E6E9",
"%	c #EEEFF1",
"&	c #DFE1E5",
"*	c #ECEDEF",
"=	c #DBDDE1",
"-	c #E9EBED",
";	c #D6D8DD",
">	c #E6E8EB",
",	c #D0D3D8",
"'	c #CBCED4",
")	c #E0E2E5",
"!	c #C6C9D0",
"~	c #DDDFE3",
"{	c #C3C7CE",
"]	c #DBDDE2",
"^	c #C0C4CB",
"/	c #D9DCE0",
"(	c #BDC1C9",
"_	c #BEC1C9",
":	c #D7DADF",
"<	c #BABEC6",
"[	c #BBBFC6",
"}	c #B7BCC4",
"|	c #B8BDC4",
"1	c #D4D7DC",
"2	c #B5B9C2",
"3	c #B6BAC2",
"4	c #D3D5DA",
"5	c #B2B7C0",
"6	c #B3B8C0",
"7	c #D1D4D9",
"8	c #B0B5BE",
"9	c #B1B6BF",
"0	c #AEB3BC",
"a	c #AFB4BD",
"b	c #CED1D7",
"c	c #ACB1BB",
"d	c #ADB2BC",
"e	c #CDD0D6",
"f	c #AAAFB9",
"g	c #ABB0BA",
"h	c #CCCFD5",
"i	c #959EA7",
".... ",
"+++@.",
"##$%.",
"&&&*.",
"===-.",
";;;>.",
",,,#.",
"''').",
"!!!~.",
"{{{].",
"^^^/.",
"((_:.",
"<<[;.",
"}}|1.",
"2234.",
"5567.",
"889,.",
"00ab.",
"ccde.",
"ffgh.",
"ffgh.",
"ffgh.",
"ffgh.",
"ffgh.",
"ifgh."};
