/* XPM */
static char * dtapps_xpm[] = {
"48 48 60 1",
" 	c None",
".	c #FFFFFFFFDEDE",
"X	c #DEDEDEDEBDBD",
"o	c #BDBDBDBDBDBD",
"O	c #BDBDBDBDFFFF",
"+	c #FFFFFFFF2121",
"@	c #21212121FFFF",
"#	c #FFFFFFFFBDBD",
"$	c #BDBDBDBDADAD",
"%	c #ADADADADADAD",
"&	c #ADADADAD2121",
"*	c #FFFFFFFF7373",
"=	c #73737373FFFF",
"-	c #737373739494",
";	c #94949494DEDE",
":	c #DEDEDEDEDEDE",
">	c #DEDEDEDE2121",
",	c #BDBDBDBD6363",
"<	c #636363630000",
"1	c #000000000000",
"2	c #00000000ADAD",
"3	c #FFFF00007373",
"4	c #737373734242",
"5	c #42424242FFFF",
"6	c #000000004242",
"7	c #424242424242",
"8	c #42424242ADAD",
"9	c #FFFF00004242",
"0	c #949494949494",
"q	c #DEDEDEDE0000",
"w	c #212121219494",
"e	c #949494944242",
"r	c #63636363ADAD",
"t	c #FFFFFFFF0000",
"y	c #FFFFFFFF4242",
"u	c #424242426363",
"i	c #636363636363",
"p	c #63636363FFFF",
"a	c #FFFFFFFF6363",
"s	c #212121216363",
"d	c #63636363BDBD",
"f	c #DEDEDEDE6363",
"g	c #636363637373",
"h	c #DEDEDEDE4242",
"j	c #ADADADAD6363",
"k	c #212121210000",
"l	c #ADADADADDEDE",
"z	c #DEDEDEDEFFFF",
"x	c #DEDEDEDEADAD",
"c	c #63636363DEDE",
"v	c #ADADADADFFFF",
"b	c #FFFFFFFFABAB",
"n	c #212121217373",
"m	c #0000FFFF0000",
"M	c #737373737373",
"N	c #0000FFFFFFFF",
"B	c #212121212121",
"V	c #FFFFFFFF9494",
"C	c #94949494FFFF",
"Z	c #737373736363",
"                                                ",
"                                                ",
"                  .XooooooooooO                 ",
"             +@   #$%%%%%%%%%&@          *=     ",
"         *-;:>@   #,<11111112&@          345    ",
"          .::>@   #,<67777778&@         3=95    ",
"         *-0;>@   #,<67777778&@       .q 95     ",
"          .::>@   #,<67777778&@      .>we5      ",
"         *-;:>@   #,r%%%%%%%%&@     tyuip       ",
"  aiiiiiip.::>siiid,d,d,d,d,r&siiiptt.fp        ",
"  aiiiiiig-0;>siiid,iiiiiiiir&siiptt.h5         ",
"  aiiiiiip.::>siiid,r%%%%%%%%&siptt.h5          ",
"  aiiiiiig-;:>siiid,d,d,d,d,r&sptt.h5           ",
"  arjiiiip.::>siiid,iiiiiiiir&@tt.h5            ",
"  arjiiiig-0;>siiid,r%%%%%%%%&kt.hup            ",
"  arl::::::::::::::::::::::::::::::::::::z      ",
"  arlx%%%%%%%%%%%%%%%%%%%%%%%%%%%%%%%%%%&@      ",
"  aicx%%%%%%%%%%%%%%%%%%%%%%%%%%%%%%%%%%&@      ",
"  aicx%%%%%%%%%%%%%%%%%%%%%%%%%%%%%%%%%%&@      ",
"  aicx%%%%%%%%%%%%%%%%%%%%%%%%%%%%%%%%%%&@      ",
"  aicx%%%%%%%%%v              b%%%%%%%%%&n=     ",
"  aicx%%%%%%%%%vt m m m m m m ar%%%%%%%%&nM=    ",
"  arlx%%%%%%%%%v m m m m m m Nar%%%%%%%%&nMM=   ",
"  arlx%%%%%%%%%vt m m m m m m ar%%%%%%%%&sgMM=  ",
"  arlx%%%%%%%%%v+BBBBBBBBBBBB@ar%%%%%%%%&sigM=  ",
"  arlx%%%%%%%%%v+BBBBBBBBBBBB@ar%%%%%%%%&sigM=  ",
"  arlx%%%%%%%%%v+siiiiiiiiiiipar%%%%%%%%&sigM=  ",
"  arlx%%%%%%%%%vV000000000000Car%%%%%%%%&sigM=  ",
"  arlx%%%%%%%%%v              ar%%%%%%%%&sigM=  ",
"  aicx%%%%%%%%%%jiiiiiiiiiiiiiir%%%%%%%%&sigM=  ",
"  aicx%%%%%%%%%%%%%%%%%%%%%%%%%%%%%%%%%%&sigM=  ",
"  aicx%%%%%%%%%%%%%%%%%%%%%%%%%%%%%%%%%%&sigM=  ",
"  aicx%%%%%%%%%%%%%%%%%%%%%%%%%%%%%%%%%%&sigM=  ",
"  aicx%%%%%%%%%%%%%%%%%%%%%%%%%%%%%%%%%%&sigM=  ",
"  arlx%%%%%%%%%%%%%%%%%%%%%%%%%%%%%%%%%%&sigM=  ",
"  arlx%%%%%%%%%%%%%%%%%%%%%%%%%%%%%%%%%%&sigM=  ",
"  arlx%%%%%%%%%%%%%%%%%%%%%%%%%%%%%%%%%%&sigM=  ",
"  #$lx%%%%%%%%%%%%%%%%%%%%%%%%%%%%%%%%%%&sigM=  ",
"   blx%%%%%%%%%%%%%%%%%%%%%%%%%%%%%%%%%%&sigM=  ",
"    .x%%%%%%%%%%%%%%%%%%%%%%%%%%%%%%%%%%&sigM=  ",
"    .x%%%%%%%%%%%%%%%%%%%%%%%%%%%%%%%%%%&sigM=  ",
"    .x%%%%%%%%%%%%%%%%%%%%%%%%%%%%%%%%%%&sigM=  ",
"    .>BBBBBBBBBBBBBBBBBBBBBBBBBBBBBBBBBBBsigM=  ",
"        *MMZiiiiiiiiiiiiiiiiiiiiiiiiiiiiiiigM=  ",
"         *MMZiiiiiiiiiiiiiiiiiiiiiiiiiiiiiigM=  ",
"          *MMMMMMMMMMMMMMMMMMMMMMMMMMMMMMMMMM=  ",
"           *MMMMMMMMMMMMMMMMMMMMMMMMMMMMMMMMM=  ",
"                                               b"};
